<?xml version="1.0" encoding="utf-8" standalone="no"?>
<!DOCTYPE svg PUBLIC "-//W3C//DTD SVG 1.1//EN"
  "http://www.w3.org/Graphics/SVG/1.1/DTD/svg11.dtd">
<!-- Created with matplotlib (https://matplotlib.org/) -->
<svg height="248.518125pt" version="1.1" viewBox="0 0 393.207813 248.518125" width="393.207813pt" xmlns="http://www.w3.org/2000/svg" xmlns:xlink="http://www.w3.org/1999/xlink">
 <metadata>
  <rdf:RDF xmlns:cc="http://creativecommons.org/ns#" xmlns:dc="http://purl.org/dc/elements/1.1/" xmlns:rdf="http://www.w3.org/1999/02/22-rdf-syntax-ns#">
   <cc:Work>
    <dc:type rdf:resource="http://purl.org/dc/dcmitype/StillImage"/>
    <dc:date>2021-05-21T21:18:06.344987</dc:date>
    <dc:format>image/svg+xml</dc:format>
    <dc:creator>
     <cc:Agent>
      <dc:title>Matplotlib v3.3.2, https://matplotlib.org/</dc:title>
     </cc:Agent>
    </dc:creator>
   </cc:Work>
  </rdf:RDF>
 </metadata>
 <defs>
  <style type="text/css">*{stroke-linecap:butt;stroke-linejoin:round;}</style>
 </defs>
 <g id="figure_1">
  <g id="patch_1">
   <path d="M 0 248.518125 
L 393.207813 248.518125 
L 393.207813 0 
L 0 0 
z
" style="fill:none;"/>
  </g>
  <g id="axes_1">
   <g id="patch_2">
    <path d="M 51.207813 33.717073 
L 386.007812 33.717073 
L 386.007812 7.2 
L 51.207813 7.2 
z
" style="fill:#ffffff;"/>
   </g>
   <g id="matplotlib.axis_1">
    <g id="xtick_1">
     <g id="line2d_1">
      <defs>
       <path d="M 0 0 
L 0 3.5 
" id="m3dcb20bf15" style="stroke:#000000;stroke-width:0.8;"/>
      </defs>
      <g>
       <use style="stroke:#000000;stroke-width:0.8;" x="66.425994" xlink:href="#m3dcb20bf15" y="33.717073"/>
      </g>
     </g>
     <g id="text_1">
      <!-- 0 -->
      <g transform="translate(63.244744 48.315511)scale(0.1 -0.1)">
       <defs>
        <path d="M 31.78125 66.40625 
Q 24.171875 66.40625 20.328125 58.90625 
Q 16.5 51.421875 16.5 36.375 
Q 16.5 21.390625 20.328125 13.890625 
Q 24.171875 6.390625 31.78125 6.390625 
Q 39.453125 6.390625 43.28125 13.890625 
Q 47.125 21.390625 47.125 36.375 
Q 47.125 51.421875 43.28125 58.90625 
Q 39.453125 66.40625 31.78125 66.40625 
z
M 31.78125 74.21875 
Q 44.046875 74.21875 50.515625 64.515625 
Q 56.984375 54.828125 56.984375 36.375 
Q 56.984375 17.96875 50.515625 8.265625 
Q 44.046875 -1.421875 31.78125 -1.421875 
Q 19.53125 -1.421875 13.0625 8.265625 
Q 6.59375 17.96875 6.59375 36.375 
Q 6.59375 54.828125 13.0625 64.515625 
Q 19.53125 74.21875 31.78125 74.21875 
z
" id="DejaVuSans-48"/>
       </defs>
       <use xlink:href="#DejaVuSans-48"/>
      </g>
     </g>
    </g>
    <g id="xtick_2">
     <g id="line2d_2">
      <g>
       <use style="stroke:#000000;stroke-width:0.8;" x="132.592002" xlink:href="#m3dcb20bf15" y="33.717073"/>
      </g>
     </g>
     <g id="text_2">
      <!-- 5 -->
      <g transform="translate(129.410752 48.315511)scale(0.1 -0.1)">
       <defs>
        <path d="M 10.796875 72.90625 
L 49.515625 72.90625 
L 49.515625 64.59375 
L 19.828125 64.59375 
L 19.828125 46.734375 
Q 21.96875 47.46875 24.109375 47.828125 
Q 26.265625 48.1875 28.421875 48.1875 
Q 40.625 48.1875 47.75 41.5 
Q 54.890625 34.8125 54.890625 23.390625 
Q 54.890625 11.625 47.5625 5.09375 
Q 40.234375 -1.421875 26.90625 -1.421875 
Q 22.3125 -1.421875 17.546875 -0.640625 
Q 12.796875 0.140625 7.71875 1.703125 
L 7.71875 11.625 
Q 12.109375 9.234375 16.796875 8.0625 
Q 21.484375 6.890625 26.703125 6.890625 
Q 35.15625 6.890625 40.078125 11.328125 
Q 45.015625 15.765625 45.015625 23.390625 
Q 45.015625 31 40.078125 35.4375 
Q 35.15625 39.890625 26.703125 39.890625 
Q 22.75 39.890625 18.8125 39.015625 
Q 14.890625 38.140625 10.796875 36.28125 
z
" id="DejaVuSans-53"/>
       </defs>
       <use xlink:href="#DejaVuSans-53"/>
      </g>
     </g>
    </g>
    <g id="xtick_3">
     <g id="line2d_3">
      <g>
       <use style="stroke:#000000;stroke-width:0.8;" x="198.75801" xlink:href="#m3dcb20bf15" y="33.717073"/>
      </g>
     </g>
     <g id="text_3">
      <!-- 10 -->
      <g transform="translate(192.39551 48.315511)scale(0.1 -0.1)">
       <defs>
        <path d="M 12.40625 8.296875 
L 28.515625 8.296875 
L 28.515625 63.921875 
L 10.984375 60.40625 
L 10.984375 69.390625 
L 28.421875 72.90625 
L 38.28125 72.90625 
L 38.28125 8.296875 
L 54.390625 8.296875 
L 54.390625 0 
L 12.40625 0 
z
" id="DejaVuSans-49"/>
       </defs>
       <use xlink:href="#DejaVuSans-49"/>
       <use x="63.623047" xlink:href="#DejaVuSans-48"/>
      </g>
     </g>
    </g>
    <g id="xtick_4">
     <g id="line2d_4">
      <g>
       <use style="stroke:#000000;stroke-width:0.8;" x="264.924018" xlink:href="#m3dcb20bf15" y="33.717073"/>
      </g>
     </g>
     <g id="text_4">
      <!-- 15 -->
      <g transform="translate(258.561518 48.315511)scale(0.1 -0.1)">
       <use xlink:href="#DejaVuSans-49"/>
       <use x="63.623047" xlink:href="#DejaVuSans-53"/>
      </g>
     </g>
    </g>
    <g id="xtick_5">
     <g id="line2d_5">
      <g>
       <use style="stroke:#000000;stroke-width:0.8;" x="331.090026" xlink:href="#m3dcb20bf15" y="33.717073"/>
      </g>
     </g>
     <g id="text_5">
      <!-- 20 -->
      <g transform="translate(324.727526 48.315511)scale(0.1 -0.1)">
       <defs>
        <path d="M 19.1875 8.296875 
L 53.609375 8.296875 
L 53.609375 0 
L 7.328125 0 
L 7.328125 8.296875 
Q 12.9375 14.109375 22.625 23.890625 
Q 32.328125 33.6875 34.8125 36.53125 
Q 39.546875 41.84375 41.421875 45.53125 
Q 43.3125 49.21875 43.3125 52.78125 
Q 43.3125 58.59375 39.234375 62.25 
Q 35.15625 65.921875 28.609375 65.921875 
Q 23.96875 65.921875 18.8125 64.3125 
Q 13.671875 62.703125 7.8125 59.421875 
L 7.8125 69.390625 
Q 13.765625 71.78125 18.9375 73 
Q 24.125 74.21875 28.421875 74.21875 
Q 39.75 74.21875 46.484375 68.546875 
Q 53.21875 62.890625 53.21875 53.421875 
Q 53.21875 48.921875 51.53125 44.890625 
Q 49.859375 40.875 45.40625 35.40625 
Q 44.1875 33.984375 37.640625 27.21875 
Q 31.109375 20.453125 19.1875 8.296875 
z
" id="DejaVuSans-50"/>
       </defs>
       <use xlink:href="#DejaVuSans-50"/>
       <use x="63.623047" xlink:href="#DejaVuSans-48"/>
      </g>
     </g>
    </g>
   </g>
   <g id="matplotlib.axis_2">
    <g id="ytick_1">
     <g id="line2d_6">
      <defs>
       <path d="M 0 0 
L -3.5 0 
" id="mcc693cfe0d" style="stroke:#000000;stroke-width:0.8;"/>
      </defs>
      <g>
       <use style="stroke:#000000;stroke-width:0.8;" x="51.207813" xlink:href="#mcc693cfe0d" y="24.004494"/>
      </g>
     </g>
     <g id="text_6">
      <!-- 0.000 -->
      <g transform="translate(15.579688 27.803712)scale(0.1 -0.1)">
       <defs>
        <path d="M 10.6875 12.40625 
L 21 12.40625 
L 21 0 
L 10.6875 0 
z
" id="DejaVuSans-46"/>
       </defs>
       <use xlink:href="#DejaVuSans-48"/>
       <use x="63.623047" xlink:href="#DejaVuSans-46"/>
       <use x="95.410156" xlink:href="#DejaVuSans-48"/>
       <use x="159.033203" xlink:href="#DejaVuSans-48"/>
       <use x="222.65625" xlink:href="#DejaVuSans-48"/>
      </g>
     </g>
    </g>
    <g id="ytick_2">
     <g id="line2d_7">
      <g>
       <use style="stroke:#000000;stroke-width:0.8;" x="51.207813" xlink:href="#mcc693cfe0d" y="14.265601"/>
      </g>
     </g>
     <g id="text_7">
      <!-- 0.025 -->
      <g transform="translate(15.579688 18.06482)scale(0.1 -0.1)">
       <use xlink:href="#DejaVuSans-48"/>
       <use x="63.623047" xlink:href="#DejaVuSans-46"/>
       <use x="95.410156" xlink:href="#DejaVuSans-48"/>
       <use x="159.033203" xlink:href="#DejaVuSans-50"/>
       <use x="222.65625" xlink:href="#DejaVuSans-53"/>
      </g>
     </g>
    </g>
   </g>
   <g id="line2d_8">
    <path clip-path="url(#pafeb3516fd)" d="M 66.425994 32.511752 
L 79.659196 20.650506 
L 92.892397 24.004494 
L 106.125599 24.004494 
L 119.358801 24.004494 
L 132.592002 24.004494 
L 145.825204 24.004494 
L 159.058405 24.004494 
L 172.291607 24.004494 
L 185.524809 24.004494 
L 198.75801 24.004494 
L 211.991212 24.004494 
L 225.224413 18.189247 
L 238.457615 18.189247 
L 251.690816 18.189247 
L 264.924018 24.004494 
L 278.15722 24.004494 
L 291.390421 24.004494 
L 304.623623 20.365981 
L 317.856824 8.405322 
L 331.090026 8.405322 
L 344.323228 20.863822 
L 357.556429 20.863822 
L 370.789631 20.863822 
" style="fill:none;stroke:#1f77b4;stroke-linecap:square;stroke-width:1.5;"/>
   </g>
   <g id="patch_3">
    <path d="M 51.207813 33.717073 
L 51.207813 7.2 
" style="fill:none;stroke:#000000;stroke-linecap:square;stroke-linejoin:miter;stroke-width:0.8;"/>
   </g>
   <g id="patch_4">
    <path d="M 386.007812 33.717073 
L 386.007812 7.2 
" style="fill:none;stroke:#000000;stroke-linecap:square;stroke-linejoin:miter;stroke-width:0.8;"/>
   </g>
   <g id="patch_5">
    <path d="M 51.207812 33.717073 
L 386.007813 33.717073 
" style="fill:none;stroke:#000000;stroke-linecap:square;stroke-linejoin:miter;stroke-width:0.8;"/>
   </g>
   <g id="patch_6">
    <path d="M 51.207812 7.2 
L 386.007813 7.2 
" style="fill:none;stroke:#000000;stroke-linecap:square;stroke-linejoin:miter;stroke-width:0.8;"/>
   </g>
  </g>
  <g id="axes_2">
   <g id="patch_7">
    <path d="M 51.207813 65.537561 
L 386.007812 65.537561 
L 386.007812 39.020488 
L 51.207813 39.020488 
z
" style="fill:#ffffff;"/>
   </g>
   <g id="matplotlib.axis_3">
    <g id="xtick_6">
     <g id="line2d_9">
      <g>
       <use style="stroke:#000000;stroke-width:0.8;" x="66.425994" xlink:href="#m3dcb20bf15" y="65.537561"/>
      </g>
     </g>
     <g id="text_8">
      <!-- 0 -->
      <g transform="translate(63.244744 80.135998)scale(0.1 -0.1)">
       <use xlink:href="#DejaVuSans-48"/>
      </g>
     </g>
    </g>
    <g id="xtick_7">
     <g id="line2d_10">
      <g>
       <use style="stroke:#000000;stroke-width:0.8;" x="132.592002" xlink:href="#m3dcb20bf15" y="65.537561"/>
      </g>
     </g>
     <g id="text_9">
      <!-- 5 -->
      <g transform="translate(129.410752 80.135998)scale(0.1 -0.1)">
       <use xlink:href="#DejaVuSans-53"/>
      </g>
     </g>
    </g>
    <g id="xtick_8">
     <g id="line2d_11">
      <g>
       <use style="stroke:#000000;stroke-width:0.8;" x="198.75801" xlink:href="#m3dcb20bf15" y="65.537561"/>
      </g>
     </g>
     <g id="text_10">
      <!-- 10 -->
      <g transform="translate(192.39551 80.135998)scale(0.1 -0.1)">
       <use xlink:href="#DejaVuSans-49"/>
       <use x="63.623047" xlink:href="#DejaVuSans-48"/>
      </g>
     </g>
    </g>
    <g id="xtick_9">
     <g id="line2d_12">
      <g>
       <use style="stroke:#000000;stroke-width:0.8;" x="264.924018" xlink:href="#m3dcb20bf15" y="65.537561"/>
      </g>
     </g>
     <g id="text_11">
      <!-- 15 -->
      <g transform="translate(258.561518 80.135998)scale(0.1 -0.1)">
       <use xlink:href="#DejaVuSans-49"/>
       <use x="63.623047" xlink:href="#DejaVuSans-53"/>
      </g>
     </g>
    </g>
    <g id="xtick_10">
     <g id="line2d_13">
      <g>
       <use style="stroke:#000000;stroke-width:0.8;" x="331.090026" xlink:href="#m3dcb20bf15" y="65.537561"/>
      </g>
     </g>
     <g id="text_12">
      <!-- 20 -->
      <g transform="translate(324.727526 80.135998)scale(0.1 -0.1)">
       <use xlink:href="#DejaVuSans-50"/>
       <use x="63.623047" xlink:href="#DejaVuSans-48"/>
      </g>
     </g>
    </g>
   </g>
   <g id="matplotlib.axis_4">
    <g id="ytick_3">
     <g id="line2d_14">
      <g>
       <use style="stroke:#000000;stroke-width:0.8;" x="51.207813" xlink:href="#mcc693cfe0d" y="63.835295"/>
      </g>
     </g>
     <g id="text_13">
      <!-- −0.02 -->
      <g transform="translate(13.5625 67.634514)scale(0.1 -0.1)">
       <defs>
        <path d="M 10.59375 35.5 
L 73.1875 35.5 
L 73.1875 27.203125 
L 10.59375 27.203125 
z
" id="DejaVuSans-8722"/>
       </defs>
       <use xlink:href="#DejaVuSans-8722"/>
       <use x="83.789062" xlink:href="#DejaVuSans-48"/>
       <use x="147.412109" xlink:href="#DejaVuSans-46"/>
       <use x="179.199219" xlink:href="#DejaVuSans-48"/>
       <use x="242.822266" xlink:href="#DejaVuSans-50"/>
      </g>
     </g>
    </g>
    <g id="ytick_4">
     <g id="line2d_15">
      <g>
       <use style="stroke:#000000;stroke-width:0.8;" x="51.207813" xlink:href="#mcc693cfe0d" y="47.153817"/>
      </g>
     </g>
     <g id="text_14">
      <!-- 0.00 -->
      <g transform="translate(21.942188 50.953035)scale(0.1 -0.1)">
       <use xlink:href="#DejaVuSans-48"/>
       <use x="63.623047" xlink:href="#DejaVuSans-46"/>
       <use x="95.410156" xlink:href="#DejaVuSans-48"/>
       <use x="159.033203" xlink:href="#DejaVuSans-48"/>
      </g>
     </g>
    </g>
   </g>
   <g id="line2d_16">
    <path clip-path="url(#pf9025f76f5)" d="M 66.425994 47.153817 
L 79.659196 40.225809 
L 92.892397 64.332239 
L 106.125599 64.332239 
L 119.358801 64.332239 
L 132.592002 64.332239 
L 145.825204 64.332239 
L 159.058405 64.332239 
L 172.291607 64.332239 
L 185.524809 58.113644 
L 198.75801 58.113644 
L 211.991212 47.153817 
L 225.224413 54.476049 
L 238.457615 54.476049 
L 251.690816 54.476049 
L 264.924018 47.153817 
L 278.15722 47.153817 
L 291.390421 47.153817 
L 304.623623 47.153817 
L 317.856824 48.028771 
L 331.090026 48.028771 
L 344.323228 48.028771 
L 357.556429 48.028771 
L 370.789631 48.028771 
" style="fill:none;stroke:#1f77b4;stroke-linecap:square;stroke-width:1.5;"/>
   </g>
   <g id="patch_8">
    <path d="M 51.207813 65.537561 
L 51.207813 39.020488 
" style="fill:none;stroke:#000000;stroke-linecap:square;stroke-linejoin:miter;stroke-width:0.8;"/>
   </g>
   <g id="patch_9">
    <path d="M 386.007812 65.537561 
L 386.007812 39.020488 
" style="fill:none;stroke:#000000;stroke-linecap:square;stroke-linejoin:miter;stroke-width:0.8;"/>
   </g>
   <g id="patch_10">
    <path d="M 51.207812 65.537561 
L 386.007813 65.537561 
" style="fill:none;stroke:#000000;stroke-linecap:square;stroke-linejoin:miter;stroke-width:0.8;"/>
   </g>
   <g id="patch_11">
    <path d="M 51.207812 39.020488 
L 386.007813 39.020488 
" style="fill:none;stroke:#000000;stroke-linecap:square;stroke-linejoin:miter;stroke-width:0.8;"/>
   </g>
  </g>
  <g id="axes_3">
   <g id="patch_12">
    <path d="M 51.207813 97.358049 
L 386.007812 97.358049 
L 386.007812 70.840976 
L 51.207813 70.840976 
z
" style="fill:#ffffff;"/>
   </g>
   <g id="matplotlib.axis_5">
    <g id="xtick_11">
     <g id="line2d_17">
      <g>
       <use style="stroke:#000000;stroke-width:0.8;" x="66.425994" xlink:href="#m3dcb20bf15" y="97.358049"/>
      </g>
     </g>
     <g id="text_15">
      <!-- 0 -->
      <g transform="translate(63.244744 111.956486)scale(0.1 -0.1)">
       <use xlink:href="#DejaVuSans-48"/>
      </g>
     </g>
    </g>
    <g id="xtick_12">
     <g id="line2d_18">
      <g>
       <use style="stroke:#000000;stroke-width:0.8;" x="132.592002" xlink:href="#m3dcb20bf15" y="97.358049"/>
      </g>
     </g>
     <g id="text_16">
      <!-- 5 -->
      <g transform="translate(129.410752 111.956486)scale(0.1 -0.1)">
       <use xlink:href="#DejaVuSans-53"/>
      </g>
     </g>
    </g>
    <g id="xtick_13">
     <g id="line2d_19">
      <g>
       <use style="stroke:#000000;stroke-width:0.8;" x="198.75801" xlink:href="#m3dcb20bf15" y="97.358049"/>
      </g>
     </g>
     <g id="text_17">
      <!-- 10 -->
      <g transform="translate(192.39551 111.956486)scale(0.1 -0.1)">
       <use xlink:href="#DejaVuSans-49"/>
       <use x="63.623047" xlink:href="#DejaVuSans-48"/>
      </g>
     </g>
    </g>
    <g id="xtick_14">
     <g id="line2d_20">
      <g>
       <use style="stroke:#000000;stroke-width:0.8;" x="264.924018" xlink:href="#m3dcb20bf15" y="97.358049"/>
      </g>
     </g>
     <g id="text_18">
      <!-- 15 -->
      <g transform="translate(258.561518 111.956486)scale(0.1 -0.1)">
       <use xlink:href="#DejaVuSans-49"/>
       <use x="63.623047" xlink:href="#DejaVuSans-53"/>
      </g>
     </g>
    </g>
    <g id="xtick_15">
     <g id="line2d_21">
      <g>
       <use style="stroke:#000000;stroke-width:0.8;" x="331.090026" xlink:href="#m3dcb20bf15" y="97.358049"/>
      </g>
     </g>
     <g id="text_19">
      <!-- 20 -->
      <g transform="translate(324.727526 111.956486)scale(0.1 -0.1)">
       <use xlink:href="#DejaVuSans-50"/>
       <use x="63.623047" xlink:href="#DejaVuSans-48"/>
      </g>
     </g>
    </g>
   </g>
   <g id="matplotlib.axis_6">
    <g id="ytick_5">
     <g id="line2d_22">
      <g>
       <use style="stroke:#000000;stroke-width:0.8;" x="51.207813" xlink:href="#mcc693cfe0d" y="91.695745"/>
      </g>
     </g>
     <g id="text_20">
      <!-- 0.000 -->
      <g transform="translate(15.579688 95.494964)scale(0.1 -0.1)">
       <use xlink:href="#DejaVuSans-48"/>
       <use x="63.623047" xlink:href="#DejaVuSans-46"/>
       <use x="95.410156" xlink:href="#DejaVuSans-48"/>
       <use x="159.033203" xlink:href="#DejaVuSans-48"/>
       <use x="222.65625" xlink:href="#DejaVuSans-48"/>
      </g>
     </g>
    </g>
    <g id="ytick_6">
     <g id="line2d_23">
      <g>
       <use style="stroke:#000000;stroke-width:0.8;" x="51.207813" xlink:href="#mcc693cfe0d" y="73.91786"/>
      </g>
     </g>
     <g id="text_21">
      <!-- 0.025 -->
      <g transform="translate(15.579688 77.717079)scale(0.1 -0.1)">
       <use xlink:href="#DejaVuSans-48"/>
       <use x="63.623047" xlink:href="#DejaVuSans-46"/>
       <use x="95.410156" xlink:href="#DejaVuSans-48"/>
       <use x="159.033203" xlink:href="#DejaVuSans-50"/>
       <use x="222.65625" xlink:href="#DejaVuSans-53"/>
      </g>
     </g>
    </g>
   </g>
   <g id="line2d_24">
    <path clip-path="url(#p957eae8d7d)" d="M 66.425994 91.695745 
L 79.659196 91.695745 
L 92.892397 91.695745 
L 106.125599 91.695745 
L 119.358801 91.695745 
L 132.592002 91.695745 
L 145.825204 91.695745 
L 159.058405 91.695745 
L 172.291607 72.046297 
L 185.524809 72.046297 
L 198.75801 72.046297 
L 211.991212 87.731274 
L 225.224413 87.731274 
L 238.457615 87.731274 
L 251.690816 87.731274 
L 264.924018 91.695745 
L 278.15722 91.695745 
L 291.390421 91.695745 
L 304.623623 85.178983 
L 317.856824 91.695745 
L 331.090026 96.152727 
L 344.323228 96.152727 
L 357.556429 96.152727 
L 370.789631 96.152727 
" style="fill:none;stroke:#1f77b4;stroke-linecap:square;stroke-width:1.5;"/>
   </g>
   <g id="patch_13">
    <path d="M 51.207813 97.358049 
L 51.207813 70.840976 
" style="fill:none;stroke:#000000;stroke-linecap:square;stroke-linejoin:miter;stroke-width:0.8;"/>
   </g>
   <g id="patch_14">
    <path d="M 386.007812 97.358049 
L 386.007812 70.840976 
" style="fill:none;stroke:#000000;stroke-linecap:square;stroke-linejoin:miter;stroke-width:0.8;"/>
   </g>
   <g id="patch_15">
    <path d="M 51.207812 97.358049 
L 386.007813 97.358049 
" style="fill:none;stroke:#000000;stroke-linecap:square;stroke-linejoin:miter;stroke-width:0.8;"/>
   </g>
   <g id="patch_16">
    <path d="M 51.207812 70.840976 
L 386.007813 70.840976 
" style="fill:none;stroke:#000000;stroke-linecap:square;stroke-linejoin:miter;stroke-width:0.8;"/>
   </g>
  </g>
  <g id="axes_4">
   <g id="patch_17">
    <path d="M 51.207813 129.178537 
L 386.007812 129.178537 
L 386.007812 102.661463 
L 51.207813 102.661463 
z
" style="fill:#ffffff;"/>
   </g>
   <g id="matplotlib.axis_7">
    <g id="xtick_16">
     <g id="line2d_25">
      <g>
       <use style="stroke:#000000;stroke-width:0.8;" x="66.425994" xlink:href="#m3dcb20bf15" y="129.178537"/>
      </g>
     </g>
     <g id="text_22">
      <!-- 0 -->
      <g transform="translate(63.244744 143.776974)scale(0.1 -0.1)">
       <use xlink:href="#DejaVuSans-48"/>
      </g>
     </g>
    </g>
    <g id="xtick_17">
     <g id="line2d_26">
      <g>
       <use style="stroke:#000000;stroke-width:0.8;" x="132.592002" xlink:href="#m3dcb20bf15" y="129.178537"/>
      </g>
     </g>
     <g id="text_23">
      <!-- 5 -->
      <g transform="translate(129.410752 143.776974)scale(0.1 -0.1)">
       <use xlink:href="#DejaVuSans-53"/>
      </g>
     </g>
    </g>
    <g id="xtick_18">
     <g id="line2d_27">
      <g>
       <use style="stroke:#000000;stroke-width:0.8;" x="198.75801" xlink:href="#m3dcb20bf15" y="129.178537"/>
      </g>
     </g>
     <g id="text_24">
      <!-- 10 -->
      <g transform="translate(192.39551 143.776974)scale(0.1 -0.1)">
       <use xlink:href="#DejaVuSans-49"/>
       <use x="63.623047" xlink:href="#DejaVuSans-48"/>
      </g>
     </g>
    </g>
    <g id="xtick_19">
     <g id="line2d_28">
      <g>
       <use style="stroke:#000000;stroke-width:0.8;" x="264.924018" xlink:href="#m3dcb20bf15" y="129.178537"/>
      </g>
     </g>
     <g id="text_25">
      <!-- 15 -->
      <g transform="translate(258.561518 143.776974)scale(0.1 -0.1)">
       <use xlink:href="#DejaVuSans-49"/>
       <use x="63.623047" xlink:href="#DejaVuSans-53"/>
      </g>
     </g>
    </g>
    <g id="xtick_20">
     <g id="line2d_29">
      <g>
       <use style="stroke:#000000;stroke-width:0.8;" x="331.090026" xlink:href="#m3dcb20bf15" y="129.178537"/>
      </g>
     </g>
     <g id="text_26">
      <!-- 20 -->
      <g transform="translate(324.727526 143.776974)scale(0.1 -0.1)">
       <use xlink:href="#DejaVuSans-50"/>
       <use x="63.623047" xlink:href="#DejaVuSans-48"/>
      </g>
     </g>
    </g>
   </g>
   <g id="matplotlib.axis_8">
    <g id="ytick_7">
     <g id="line2d_30">
      <g>
       <use style="stroke:#000000;stroke-width:0.8;" x="51.207813" xlink:href="#mcc693cfe0d" y="123.602453"/>
      </g>
     </g>
     <g id="text_27">
      <!-- 0.000 -->
      <g transform="translate(15.579688 127.401671)scale(0.1 -0.1)">
       <use xlink:href="#DejaVuSans-48"/>
       <use x="63.623047" xlink:href="#DejaVuSans-46"/>
       <use x="95.410156" xlink:href="#DejaVuSans-48"/>
       <use x="159.033203" xlink:href="#DejaVuSans-48"/>
       <use x="222.65625" xlink:href="#DejaVuSans-48"/>
      </g>
     </g>
    </g>
    <g id="ytick_8">
     <g id="line2d_31">
      <g>
       <use style="stroke:#000000;stroke-width:0.8;" x="51.207813" xlink:href="#mcc693cfe0d" y="109.45211"/>
      </g>
     </g>
     <g id="text_28">
      <!-- 0.025 -->
      <g transform="translate(15.579688 113.251328)scale(0.1 -0.1)">
       <use xlink:href="#DejaVuSans-48"/>
       <use x="63.623047" xlink:href="#DejaVuSans-46"/>
       <use x="95.410156" xlink:href="#DejaVuSans-48"/>
       <use x="159.033203" xlink:href="#DejaVuSans-50"/>
       <use x="222.65625" xlink:href="#DejaVuSans-53"/>
      </g>
     </g>
    </g>
   </g>
   <g id="line2d_32">
    <path clip-path="url(#pbc487519b7)" d="M 66.425994 103.866785 
L 79.659196 103.866785 
L 92.892397 103.866785 
L 106.125599 103.866785 
L 119.358801 103.866785 
L 132.592002 103.866785 
L 145.825204 103.866785 
L 159.058405 103.866785 
L 172.291607 103.866785 
L 185.524809 123.602453 
L 198.75801 123.602453 
L 211.991212 123.602453 
L 225.224413 125.855756 
L 238.457615 123.602453 
L 251.690816 114.885341 
L 264.924018 123.602453 
L 278.15722 122.680901 
L 291.390421 127.973215 
L 304.623623 125.024765 
L 317.856824 118.588647 
L 331.090026 118.588647 
L 344.323228 123.602453 
L 357.556429 123.602453 
L 370.789631 123.602453 
" style="fill:none;stroke:#1f77b4;stroke-linecap:square;stroke-width:1.5;"/>
   </g>
   <g id="patch_18">
    <path d="M 51.207813 129.178537 
L 51.207813 102.661463 
" style="fill:none;stroke:#000000;stroke-linecap:square;stroke-linejoin:miter;stroke-width:0.8;"/>
   </g>
   <g id="patch_19">
    <path d="M 386.007812 129.178537 
L 386.007812 102.661463 
" style="fill:none;stroke:#000000;stroke-linecap:square;stroke-linejoin:miter;stroke-width:0.8;"/>
   </g>
   <g id="patch_20">
    <path d="M 51.207812 129.178537 
L 386.007813 129.178537 
" style="fill:none;stroke:#000000;stroke-linecap:square;stroke-linejoin:miter;stroke-width:0.8;"/>
   </g>
   <g id="patch_21">
    <path d="M 51.207812 102.661463 
L 386.007813 102.661463 
" style="fill:none;stroke:#000000;stroke-linecap:square;stroke-linejoin:miter;stroke-width:0.8;"/>
   </g>
  </g>
  <g id="axes_5">
   <g id="patch_22">
    <path d="M 51.207813 160.999024 
L 386.007812 160.999024 
L 386.007812 134.481951 
L 51.207813 134.481951 
z
" style="fill:#ffffff;"/>
   </g>
   <g id="matplotlib.axis_9">
    <g id="xtick_21">
     <g id="line2d_33">
      <g>
       <use style="stroke:#000000;stroke-width:0.8;" x="66.425994" xlink:href="#m3dcb20bf15" y="160.999024"/>
      </g>
     </g>
     <g id="text_29">
      <!-- 0 -->
      <g transform="translate(63.244744 175.597462)scale(0.1 -0.1)">
       <use xlink:href="#DejaVuSans-48"/>
      </g>
     </g>
    </g>
    <g id="xtick_22">
     <g id="line2d_34">
      <g>
       <use style="stroke:#000000;stroke-width:0.8;" x="132.592002" xlink:href="#m3dcb20bf15" y="160.999024"/>
      </g>
     </g>
     <g id="text_30">
      <!-- 5 -->
      <g transform="translate(129.410752 175.597462)scale(0.1 -0.1)">
       <use xlink:href="#DejaVuSans-53"/>
      </g>
     </g>
    </g>
    <g id="xtick_23">
     <g id="line2d_35">
      <g>
       <use style="stroke:#000000;stroke-width:0.8;" x="198.75801" xlink:href="#m3dcb20bf15" y="160.999024"/>
      </g>
     </g>
     <g id="text_31">
      <!-- 10 -->
      <g transform="translate(192.39551 175.597462)scale(0.1 -0.1)">
       <use xlink:href="#DejaVuSans-49"/>
       <use x="63.623047" xlink:href="#DejaVuSans-48"/>
      </g>
     </g>
    </g>
    <g id="xtick_24">
     <g id="line2d_36">
      <g>
       <use style="stroke:#000000;stroke-width:0.8;" x="264.924018" xlink:href="#m3dcb20bf15" y="160.999024"/>
      </g>
     </g>
     <g id="text_32">
      <!-- 15 -->
      <g transform="translate(258.561518 175.597462)scale(0.1 -0.1)">
       <use xlink:href="#DejaVuSans-49"/>
       <use x="63.623047" xlink:href="#DejaVuSans-53"/>
      </g>
     </g>
    </g>
    <g id="xtick_25">
     <g id="line2d_37">
      <g>
       <use style="stroke:#000000;stroke-width:0.8;" x="331.090026" xlink:href="#m3dcb20bf15" y="160.999024"/>
      </g>
     </g>
     <g id="text_33">
      <!-- 20 -->
      <g transform="translate(324.727526 175.597462)scale(0.1 -0.1)">
       <use xlink:href="#DejaVuSans-50"/>
       <use x="63.623047" xlink:href="#DejaVuSans-48"/>
      </g>
     </g>
    </g>
   </g>
   <g id="matplotlib.axis_10">
    <g id="ytick_9">
     <g id="line2d_38">
      <g>
       <use style="stroke:#000000;stroke-width:0.8;" x="51.207813" xlink:href="#mcc693cfe0d" y="159.223767"/>
      </g>
     </g>
     <g id="text_34">
      <!-- −0.02 -->
      <g transform="translate(13.5625 163.022986)scale(0.1 -0.1)">
       <use xlink:href="#DejaVuSans-8722"/>
       <use x="83.789062" xlink:href="#DejaVuSans-48"/>
       <use x="147.412109" xlink:href="#DejaVuSans-46"/>
       <use x="179.199219" xlink:href="#DejaVuSans-48"/>
       <use x="242.822266" xlink:href="#DejaVuSans-50"/>
      </g>
     </g>
    </g>
    <g id="ytick_10">
     <g id="line2d_39">
      <g>
       <use style="stroke:#000000;stroke-width:0.8;" x="51.207813" xlink:href="#mcc693cfe0d" y="135.774135"/>
      </g>
     </g>
     <g id="text_35">
      <!-- 0.00 -->
      <g transform="translate(21.942188 139.573354)scale(0.1 -0.1)">
       <use xlink:href="#DejaVuSans-48"/>
       <use x="63.623047" xlink:href="#DejaVuSans-46"/>
       <use x="95.410156" xlink:href="#DejaVuSans-48"/>
       <use x="159.033203" xlink:href="#DejaVuSans-48"/>
      </g>
     </g>
    </g>
   </g>
   <g id="line2d_40">
    <path clip-path="url(#pd0a7942eab)" d="M 66.425994 159.793703 
L 79.659196 159.793703 
L 92.892397 159.793703 
L 106.125599 159.793703 
L 119.358801 159.793703 
L 132.592002 135.774135 
L 145.825204 135.774135 
L 159.058405 135.774135 
L 172.291607 135.774135 
L 185.524809 135.774135 
L 198.75801 135.774135 
L 211.991212 135.774135 
L 225.224413 135.774135 
L 238.457615 135.774135 
L 251.690816 135.774135 
L 264.924018 135.774135 
L 278.15722 135.687273 
L 291.390421 135.687273 
L 304.623623 149.806928 
L 317.856824 135.774135 
L 331.090026 135.774135 
L 344.323228 135.774135 
L 357.556429 135.774135 
L 370.789631 135.774135 
" style="fill:none;stroke:#1f77b4;stroke-linecap:square;stroke-width:1.5;"/>
   </g>
   <g id="patch_23">
    <path d="M 51.207813 160.999024 
L 51.207813 134.481951 
" style="fill:none;stroke:#000000;stroke-linecap:square;stroke-linejoin:miter;stroke-width:0.8;"/>
   </g>
   <g id="patch_24">
    <path d="M 386.007812 160.999024 
L 386.007812 134.481951 
" style="fill:none;stroke:#000000;stroke-linecap:square;stroke-linejoin:miter;stroke-width:0.8;"/>
   </g>
   <g id="patch_25">
    <path d="M 51.207812 160.999024 
L 386.007813 160.999024 
" style="fill:none;stroke:#000000;stroke-linecap:square;stroke-linejoin:miter;stroke-width:0.8;"/>
   </g>
   <g id="patch_26">
    <path d="M 51.207812 134.481951 
L 386.007813 134.481951 
" style="fill:none;stroke:#000000;stroke-linecap:square;stroke-linejoin:miter;stroke-width:0.8;"/>
   </g>
  </g>
  <g id="axes_6">
   <g id="patch_27">
    <path d="M 51.207813 192.819512 
L 386.007812 192.819512 
L 386.007812 166.302439 
L 51.207813 166.302439 
z
" style="fill:#ffffff;"/>
   </g>
   <g id="matplotlib.axis_11">
    <g id="xtick_26">
     <g id="line2d_41">
      <g>
       <use style="stroke:#000000;stroke-width:0.8;" x="66.425994" xlink:href="#m3dcb20bf15" y="192.819512"/>
      </g>
     </g>
     <g id="text_36">
      <!-- 0 -->
      <g transform="translate(63.244744 207.41795)scale(0.1 -0.1)">
       <use xlink:href="#DejaVuSans-48"/>
      </g>
     </g>
    </g>
    <g id="xtick_27">
     <g id="line2d_42">
      <g>
       <use style="stroke:#000000;stroke-width:0.8;" x="132.592002" xlink:href="#m3dcb20bf15" y="192.819512"/>
      </g>
     </g>
     <g id="text_37">
      <!-- 5 -->
      <g transform="translate(129.410752 207.41795)scale(0.1 -0.1)">
       <use xlink:href="#DejaVuSans-53"/>
      </g>
     </g>
    </g>
    <g id="xtick_28">
     <g id="line2d_43">
      <g>
       <use style="stroke:#000000;stroke-width:0.8;" x="198.75801" xlink:href="#m3dcb20bf15" y="192.819512"/>
      </g>
     </g>
     <g id="text_38">
      <!-- 10 -->
      <g transform="translate(192.39551 207.41795)scale(0.1 -0.1)">
       <use xlink:href="#DejaVuSans-49"/>
       <use x="63.623047" xlink:href="#DejaVuSans-48"/>
      </g>
     </g>
    </g>
    <g id="xtick_29">
     <g id="line2d_44">
      <g>
       <use style="stroke:#000000;stroke-width:0.8;" x="264.924018" xlink:href="#m3dcb20bf15" y="192.819512"/>
      </g>
     </g>
     <g id="text_39">
      <!-- 15 -->
      <g transform="translate(258.561518 207.41795)scale(0.1 -0.1)">
       <use xlink:href="#DejaVuSans-49"/>
       <use x="63.623047" xlink:href="#DejaVuSans-53"/>
      </g>
     </g>
    </g>
    <g id="xtick_30">
     <g id="line2d_45">
      <g>
       <use style="stroke:#000000;stroke-width:0.8;" x="331.090026" xlink:href="#m3dcb20bf15" y="192.819512"/>
      </g>
     </g>
     <g id="text_40">
      <!-- 20 -->
      <g transform="translate(324.727526 207.41795)scale(0.1 -0.1)">
       <use xlink:href="#DejaVuSans-50"/>
       <use x="63.623047" xlink:href="#DejaVuSans-48"/>
      </g>
     </g>
    </g>
   </g>
   <g id="matplotlib.axis_12">
    <g id="ytick_11">
     <g id="line2d_46">
      <g>
       <use style="stroke:#000000;stroke-width:0.8;" x="51.207813" xlink:href="#mcc693cfe0d" y="188.361839"/>
      </g>
     </g>
     <g id="text_41">
      <!-- −0.005 -->
      <g transform="translate(7.2 192.161057)scale(0.1 -0.1)">
       <use xlink:href="#DejaVuSans-8722"/>
       <use x="83.789062" xlink:href="#DejaVuSans-48"/>
       <use x="147.412109" xlink:href="#DejaVuSans-46"/>
       <use x="179.199219" xlink:href="#DejaVuSans-48"/>
       <use x="242.822266" xlink:href="#DejaVuSans-48"/>
       <use x="306.445312" xlink:href="#DejaVuSans-53"/>
      </g>
     </g>
    </g>
    <g id="ytick_12">
     <g id="line2d_47">
      <g>
       <use style="stroke:#000000;stroke-width:0.8;" x="51.207813" xlink:href="#mcc693cfe0d" y="180.611923"/>
      </g>
     </g>
     <g id="text_42">
      <!-- 0.000 -->
      <g transform="translate(15.579688 184.411142)scale(0.1 -0.1)">
       <use xlink:href="#DejaVuSans-48"/>
       <use x="63.623047" xlink:href="#DejaVuSans-46"/>
       <use x="95.410156" xlink:href="#DejaVuSans-48"/>
       <use x="159.033203" xlink:href="#DejaVuSans-48"/>
       <use x="222.65625" xlink:href="#DejaVuSans-48"/>
      </g>
     </g>
    </g>
    <g id="ytick_13">
     <g id="line2d_48">
      <g>
       <use style="stroke:#000000;stroke-width:0.8;" x="51.207813" xlink:href="#mcc693cfe0d" y="172.862008"/>
      </g>
     </g>
     <g id="text_43">
      <!-- 0.005 -->
      <g transform="translate(15.579688 176.661226)scale(0.1 -0.1)">
       <use xlink:href="#DejaVuSans-48"/>
       <use x="63.623047" xlink:href="#DejaVuSans-46"/>
       <use x="95.410156" xlink:href="#DejaVuSans-48"/>
       <use x="159.033203" xlink:href="#DejaVuSans-48"/>
       <use x="222.65625" xlink:href="#DejaVuSans-53"/>
      </g>
     </g>
    </g>
   </g>
   <g id="line2d_49">
    <path clip-path="url(#p9d483bced5)" d="M 66.425994 180.611923 
L 79.659196 180.611923 
L 92.892397 180.611923 
L 106.125599 180.611923 
L 119.358801 180.611923 
L 132.592002 180.611923 
L 145.825204 180.611923 
L 159.058405 180.611923 
L 172.291607 180.611923 
L 185.524809 180.611923 
L 198.75801 180.611923 
L 211.991212 180.611923 
L 225.224413 191.614191 
L 238.457615 191.614191 
L 251.690816 180.611923 
L 264.924018 187.99616 
L 278.15722 178.815154 
L 291.390421 167.507761 
L 304.623623 180.611923 
L 317.856824 184.07524 
L 331.090026 180.611923 
L 344.323228 180.611923 
L 357.556429 180.611923 
L 370.789631 180.611923 
" style="fill:none;stroke:#1f77b4;stroke-linecap:square;stroke-width:1.5;"/>
   </g>
   <g id="patch_28">
    <path d="M 51.207813 192.819512 
L 51.207813 166.302439 
" style="fill:none;stroke:#000000;stroke-linecap:square;stroke-linejoin:miter;stroke-width:0.8;"/>
   </g>
   <g id="patch_29">
    <path d="M 386.007812 192.819512 
L 386.007812 166.302439 
" style="fill:none;stroke:#000000;stroke-linecap:square;stroke-linejoin:miter;stroke-width:0.8;"/>
   </g>
   <g id="patch_30">
    <path d="M 51.207812 192.819512 
L 386.007813 192.819512 
" style="fill:none;stroke:#000000;stroke-linecap:square;stroke-linejoin:miter;stroke-width:0.8;"/>
   </g>
   <g id="patch_31">
    <path d="M 51.207812 166.302439 
L 386.007813 166.302439 
" style="fill:none;stroke:#000000;stroke-linecap:square;stroke-linejoin:miter;stroke-width:0.8;"/>
   </g>
  </g>
  <g id="axes_7">
   <g id="patch_32">
    <path d="M 51.207813 224.64 
L 386.007812 224.64 
L 386.007812 198.122927 
L 51.207813 198.122927 
z
" style="fill:#ffffff;"/>
   </g>
   <g id="matplotlib.axis_13">
    <g id="xtick_31">
     <g id="line2d_50">
      <g>
       <use style="stroke:#000000;stroke-width:0.8;" x="66.425994" xlink:href="#m3dcb20bf15" y="224.64"/>
      </g>
     </g>
     <g id="text_44">
      <!-- 0 -->
      <g transform="translate(63.244744 239.238438)scale(0.1 -0.1)">
       <use xlink:href="#DejaVuSans-48"/>
      </g>
     </g>
    </g>
    <g id="xtick_32">
     <g id="line2d_51">
      <g>
       <use style="stroke:#000000;stroke-width:0.8;" x="132.592002" xlink:href="#m3dcb20bf15" y="224.64"/>
      </g>
     </g>
     <g id="text_45">
      <!-- 5 -->
      <g transform="translate(129.410752 239.238438)scale(0.1 -0.1)">
       <use xlink:href="#DejaVuSans-53"/>
      </g>
     </g>
    </g>
    <g id="xtick_33">
     <g id="line2d_52">
      <g>
       <use style="stroke:#000000;stroke-width:0.8;" x="198.75801" xlink:href="#m3dcb20bf15" y="224.64"/>
      </g>
     </g>
     <g id="text_46">
      <!-- 10 -->
      <g transform="translate(192.39551 239.238438)scale(0.1 -0.1)">
       <use xlink:href="#DejaVuSans-49"/>
       <use x="63.623047" xlink:href="#DejaVuSans-48"/>
      </g>
     </g>
    </g>
    <g id="xtick_34">
     <g id="line2d_53">
      <g>
       <use style="stroke:#000000;stroke-width:0.8;" x="264.924018" xlink:href="#m3dcb20bf15" y="224.64"/>
      </g>
     </g>
     <g id="text_47">
      <!-- 15 -->
      <g transform="translate(258.561518 239.238438)scale(0.1 -0.1)">
       <use xlink:href="#DejaVuSans-49"/>
       <use x="63.623047" xlink:href="#DejaVuSans-53"/>
      </g>
     </g>
    </g>
    <g id="xtick_35">
     <g id="line2d_54">
      <g>
       <use style="stroke:#000000;stroke-width:0.8;" x="331.090026" xlink:href="#m3dcb20bf15" y="224.64"/>
      </g>
     </g>
     <g id="text_48">
      <!-- 20 -->
      <g transform="translate(324.727526 239.238438)scale(0.1 -0.1)">
       <use xlink:href="#DejaVuSans-50"/>
       <use x="63.623047" xlink:href="#DejaVuSans-48"/>
      </g>
     </g>
    </g>
   </g>
   <g id="matplotlib.axis_14">
    <g id="ytick_14">
     <g id="line2d_55">
      <g>
       <use style="stroke:#000000;stroke-width:0.8;" x="51.207813" xlink:href="#mcc693cfe0d" y="213.602501"/>
      </g>
     </g>
     <g id="text_49">
      <!-- 0.00 -->
      <g transform="translate(21.942188 217.40172)scale(0.1 -0.1)">
       <use xlink:href="#DejaVuSans-48"/>
       <use x="63.623047" xlink:href="#DejaVuSans-46"/>
       <use x="95.410156" xlink:href="#DejaVuSans-48"/>
       <use x="159.033203" xlink:href="#DejaVuSans-48"/>
      </g>
     </g>
    </g>
    <g id="ytick_15">
     <g id="line2d_56">
      <g>
       <use style="stroke:#000000;stroke-width:0.8;" x="51.207813" xlink:href="#mcc693cfe0d" y="198.371715"/>
      </g>
     </g>
     <g id="text_50">
      <!-- 0.02 -->
      <g transform="translate(21.942188 202.170933)scale(0.1 -0.1)">
       <use xlink:href="#DejaVuSans-48"/>
       <use x="63.623047" xlink:href="#DejaVuSans-46"/>
       <use x="95.410156" xlink:href="#DejaVuSans-48"/>
       <use x="159.033203" xlink:href="#DejaVuSans-50"/>
      </g>
     </g>
    </g>
   </g>
   <g id="line2d_57">
    <path clip-path="url(#p53361a9955)" d="M 66.425994 217.161305 
L 79.659196 217.161305 
L 92.892397 217.161305 
L 106.125599 217.161305 
L 119.358801 217.161305 
L 132.592002 217.161305 
L 145.825204 217.161305 
L 159.058405 217.161305 
L 172.291607 217.161305 
L 185.524809 217.161305 
L 198.75801 217.161305 
L 211.991212 212.327666 
L 225.224413 216.44733 
L 238.457615 213.602501 
L 251.690816 217.894143 
L 264.924018 213.602501 
L 278.15722 213.602501 
L 291.390421 199.328248 
L 304.623623 223.434678 
L 317.856824 213.602501 
L 331.090026 213.602501 
L 344.323228 213.602501 
L 357.556429 213.602501 
L 370.789631 213.602501 
" style="fill:none;stroke:#1f77b4;stroke-linecap:square;stroke-width:1.5;"/>
   </g>
   <g id="patch_33">
    <path d="M 51.207813 224.64 
L 51.207813 198.122927 
" style="fill:none;stroke:#000000;stroke-linecap:square;stroke-linejoin:miter;stroke-width:0.8;"/>
   </g>
   <g id="patch_34">
    <path d="M 386.007812 224.64 
L 386.007812 198.122927 
" style="fill:none;stroke:#000000;stroke-linecap:square;stroke-linejoin:miter;stroke-width:0.8;"/>
   </g>
   <g id="patch_35">
    <path d="M 51.207812 224.64 
L 386.007813 224.64 
" style="fill:none;stroke:#000000;stroke-linecap:square;stroke-linejoin:miter;stroke-width:0.8;"/>
   </g>
   <g id="patch_36">
    <path d="M 51.207812 198.122927 
L 386.007813 198.122927 
" style="fill:none;stroke:#000000;stroke-linecap:square;stroke-linejoin:miter;stroke-width:0.8;"/>
   </g>
  </g>
 </g>
 <defs>
  <clipPath id="pafeb3516fd">
   <rect height="26.517073" width="334.8" x="51.207813" y="7.2"/>
  </clipPath>
  <clipPath id="pf9025f76f5">
   <rect height="26.517073" width="334.8" x="51.207813" y="39.020488"/>
  </clipPath>
  <clipPath id="p957eae8d7d">
   <rect height="26.517073" width="334.8" x="51.207813" y="70.840976"/>
  </clipPath>
  <clipPath id="pbc487519b7">
   <rect height="26.517073" width="334.8" x="51.207813" y="102.661463"/>
  </clipPath>
  <clipPath id="pd0a7942eab">
   <rect height="26.517073" width="334.8" x="51.207813" y="134.481951"/>
  </clipPath>
  <clipPath id="p9d483bced5">
   <rect height="26.517073" width="334.8" x="51.207813" y="166.302439"/>
  </clipPath>
  <clipPath id="p53361a9955">
   <rect height="26.517073" width="334.8" x="51.207813" y="198.122927"/>
  </clipPath>
 </defs>
</svg>
